<svg width="19" height="19" viewBox="0 0 19 19" fill="none" xmlns="http://www.w3.org/2000/svg">
<path id="Vector" d="M11.9084 13.6822C10.6756 14.5602 9.16786 15.0773 7.53863 15.0773C3.37553 15.0773 0 11.7017 0 7.53863C0 3.37553 3.37553 0 7.53863 0C11.7017 0 15.0773 3.37553 15.0773 7.53863C15.0773 9.16786 14.5602 10.6756 13.6822 11.9084L18.6355 16.8617C19.1233 17.3495 19.1197 18.1308 18.6355 18.6142L18.6151 18.6346C18.1326 19.1171 17.3459 19.1188 16.8626 18.6346L11.9093 13.6813L11.9084 13.6822ZM7.53863 13.3035C10.7226 13.3035 13.3035 10.7226 13.3035 7.53863C13.3035 4.35467 10.7226 1.77379 7.53863 1.77379C4.35467 1.77379 1.77379 4.35467 1.77379 7.53863C1.77379 10.7226 4.35467 13.3035 7.53863 13.3035Z" fill="#DADADA"/>
</svg>
